{
    "asset" : {
        "generator" : "Khronos glTF Blender I/O v1.7.33",
        "version" : "2.0"
    },
    "extensionsUsed" : [
        "KHR_texture_transform"
    ],
    "extensionsRequired" : [
        "KHR_texture_transform"
    ],
    "scene" : 0,
    "scenes" : [
        {
            "name" : "Scene",
            "nodes" : [
                0,
                1,
                2,
                3
            ]
        }
    ],
    "nodes" : [
        {
            "name" : "Empty",
            "rotation" : [
                0,
                -0.7071068286895752,
                0,
                0.7071068286895752
            ],
            "scale" : [
                10.937646865844727,
                10.937646865844727,
                10.937646865844727
            ],
            "translation" : [
                -11.481998443603516,
                -9.578513145446777,
                12.028350830078125
            ]
        },
        {
            "name" : "Empty.001",
            "rotation" : [
                0.5000000596046448,
                -0.4999999701976776,
                -0.4999999403953552,
                0.5000000596046448
            ],
            "scale" : [
                10.937999725341797,
                10.937999725341797,
                10.937999725341797
            ],
            "translation" : [
                -11.472513198852539,
                -2.4112579822540283,
                -15.263128280639648
            ]
        },
        {
            "name" : "Empty.002",
            "rotation" : [
                0,
                0,
                -0.7071067690849304,
                0.7071068286895752
            ],
            "scale" : [
                10.937999725341797,
                10.937999725341797,
                10.937999725341797
            ],
            "translation" : [
                -39.25632858276367,
                5.921034336090088,
                5.665187358856201
            ]
        },
        {
            "mesh" : 0,
            "name" : "Ship"
        }
    ],
    "materials" : [
        {
            "doubleSided" : true,
            "name" : "base",
            "pbrMetallicRoughness" : {
                "baseColorTexture" : {
                    "index" : 0
                },
                "metallicFactor" : 0,
                "roughnessFactor" : 0.5772727131843567
            }
        },
        {
            "doubleSided" : true,
            "name" : "Material.003",
            "pbrMetallicRoughness" : {
                "baseColorFactor" : [
                    0.08668560534715652,
                    0.08166364580392838,
                    0.17706012725830078,
                    1
                ],
                "metallicFactor" : 0.7045454978942871,
                "roughnessFactor" : 0.08636362850666046
            }
        },
        {
            "doubleSided" : true,
            "name" : "Material.002",
            "normalTexture" : {
                "extensions" : {
                    "KHR_texture_transform" : {
                        "offset" : [
                            0,
                            24.89999771118164
                        ],
                        "scale" : [
                            -27.699996948242188,
                            -23.89999771118164
                        ]
                    }
                },
                "index" : 1
            },
            "pbrMetallicRoughness" : {
                "baseColorTexture" : {
                    "extensions" : {
                        "KHR_texture_transform" : {
                            "offset" : [
                                0,
                                24.89999771118164
                            ],
                            "scale" : [
                                -27.699996948242188,
                                -23.89999771118164
                            ]
                        }
                    },
                    "index" : 2
                },
                "metallicRoughnessTexture" : {
                    "extensions" : {
                        "KHR_texture_transform" : {
                            "offset" : [
                                0,
                                24.89999771118164
                            ],
                            "scale" : [
                                -27.699996948242188,
                                -23.89999771118164
                            ]
                        }
                    },
                    "index" : 3
                }
            }
        },
        {
            "doubleSided" : true,
            "name" : "Hull",
            "normalTexture" : {
                "extensions" : {
                    "KHR_texture_transform" : {
                        "offset" : [
                            0,
                            -9
                        ],
                        "scale" : [
                            10,
                            10
                        ]
                    }
                },
                "index" : 4
            },
            "pbrMetallicRoughness" : {
                "baseColorTexture" : {
                    "index" : 5
                },
                "metallicFactor" : 0.2681821882724762,
                "roughnessFactor" : 0.5
            }
        }
    ],
    "meshes" : [
        {
            "name" : "Cube.001",
            "primitives" : [
                {
                    "attributes" : {
                        "POSITION" : 0,
                        "NORMAL" : 1,
                        "TEXCOORD_0" : 2
                    },
                    "indices" : 3,
                    "material" : 0
                },
                {
                    "attributes" : {
                        "POSITION" : 4,
                        "NORMAL" : 5,
                        "TEXCOORD_0" : 6
                    },
                    "indices" : 7,
                    "material" : 1
                },
                {
                    "attributes" : {
                        "POSITION" : 8,
                        "NORMAL" : 9,
                        "TEXCOORD_0" : 10
                    },
                    "indices" : 11,
                    "material" : 2
                },
                {
                    "attributes" : {
                        "POSITION" : 12,
                        "NORMAL" : 13,
                        "TEXCOORD_0" : 14
                    },
                    "indices" : 15,
                    "material" : 3
                }
            ]
        }
    ],
    "textures" : [
        {
            "sampler" : 0,
            "source" : 0
        },
        {
            "sampler" : 0,
            "source" : 1
        },
        {
            "sampler" : 0,
            "source" : 2
        },
        {
            "sampler" : 0,
            "source" : 3
        },
        {
            "sampler" : 0,
            "source" : 4
        },
        {
            "sampler" : 0,
            "source" : 0
        }
    ],
    "images" : [
        {
            "bufferView" : 4,
            "mimeType" : "image/png",
            "name" : "Ship base"
        },
        {
            "bufferView" : 13,
            "mimeType" : "image/jpeg",
            "name" : "Metal_Plate_017_normal"
        },
        {
            "bufferView" : 14,
            "mimeType" : "image/jpeg",
            "name" : "Metal_Plate_017_basecolor"
        },
        {
            "bufferView" : 15,
            "mimeType" : "image/png",
            "name" : "Metal_Plate_017_metallic-Metal_Plate_017_roughness"
        },
        {
            "bufferView" : 20,
            "mimeType" : "image/jpeg",
            "name" : "Greeble_Techno_001_normal"
        }
    ],
    "accessors" : [
        {
            "bufferView" : 0,
            "componentType" : 5126,
            "count" : 615,
            "max" : [
                13.094496726989746,
                1.6681923866271973,
                4.988326549530029
            ],
            "min" : [
                -7.799856185913086,
                -1.8740684986114502,
                -4.988326549530029
            ],
            "type" : "VEC3"
        },
        {
            "bufferView" : 1,
            "componentType" : 5126,
            "count" : 615,
            "type" : "VEC3"
        },
        {
            "bufferView" : 2,
            "componentType" : 5126,
            "count" : 615,
            "type" : "VEC2"
        },
        {
            "bufferView" : 3,
            "componentType" : 5123,
            "count" : 1392,
            "type" : "SCALAR"
        },
        {
            "bufferView" : 5,
            "componentType" : 5126,
            "count" : 8,
            "max" : [
                4.399581432342529,
                1.6635955572128296,
                1.6892696619033813
            ],
            "min" : [
                2.97712779045105,
                1.419227957725525,
                -1.689274549484253
            ],
            "type" : "VEC3"
        },
        {
            "bufferView" : 6,
            "componentType" : 5126,
            "count" : 8,
            "type" : "VEC3"
        },
        {
            "bufferView" : 7,
            "componentType" : 5126,
            "count" : 8,
            "type" : "VEC2"
        },
        {
            "bufferView" : 8,
            "componentType" : 5123,
            "count" : 12,
            "type" : "SCALAR"
        },
        {
            "bufferView" : 9,
            "componentType" : 5126,
            "count" : 256,
            "max" : [
                -7.767885684967041,
                0.7615596652030945,
                1.7865760326385498
            ],
            "min" : [
                -8.630594253540039,
                -0.7615596652030945,
                -1.7865760326385498
            ],
            "type" : "VEC3"
        },
        {
            "bufferView" : 10,
            "componentType" : 5126,
            "count" : 256,
            "type" : "VEC3"
        },
        {
            "bufferView" : 11,
            "componentType" : 5126,
            "count" : 256,
            "type" : "VEC2"
        },
        {
            "bufferView" : 12,
            "componentType" : 5123,
            "count" : 660,
            "type" : "SCALAR"
        },
        {
            "bufferView" : 16,
            "componentType" : 5126,
            "count" : 128,
            "max" : [
                13.09194564819336,
                1.6681923866271973,
                3.579495668411255
            ],
            "min" : [
                -7.799856185913086,
                -0.09518623352050781,
                -3.579495668411255
            ],
            "type" : "VEC3"
        },
        {
            "bufferView" : 17,
            "componentType" : 5126,
            "count" : 128,
            "type" : "VEC3"
        },
        {
            "bufferView" : 18,
            "componentType" : 5126,
            "count" : 128,
            "type" : "VEC2"
        },
        {
            "bufferView" : 19,
            "componentType" : 5123,
            "count" : 336,
            "type" : "SCALAR"
        }
    ],
    "bufferViews" : [
        {
            "buffer" : 0,
            "byteLength" : 7380,
            "byteOffset" : 0
        },
        {
            "buffer" : 0,
            "byteLength" : 7380,
            "byteOffset" : 7380
        },
        {
            "buffer" : 0,
            "byteLength" : 4920,
            "byteOffset" : 14760
        },
        {
            "buffer" : 0,
            "byteLength" : 2784,
            "byteOffset" : 19680
        },
        {
            "buffer" : 0,
            "byteLength" : 90768,
            "byteOffset" : 22464
        },
        {
            "buffer" : 0,
            "byteLength" : 96,
            "byteOffset" : 113232
        },
        {
            "buffer" : 0,
            "byteLength" : 96,
            "byteOffset" : 113328
        },
        {
            "buffer" : 0,
            "byteLength" : 64,
            "byteOffset" : 113424
        },
        {
            "buffer" : 0,
            "byteLength" : 24,
            "byteOffset" : 113488
        },
        {
            "buffer" : 0,
            "byteLength" : 3072,
            "byteOffset" : 113512
        },
        {
            "buffer" : 0,
            "byteLength" : 3072,
            "byteOffset" : 116584
        },
        {
            "buffer" : 0,
            "byteLength" : 2048,
            "byteOffset" : 119656
        },
        {
            "buffer" : 0,
            "byteLength" : 1320,
            "byteOffset" : 121704
        },
        {
            "buffer" : 0,
            "byteLength" : 111820,
            "byteOffset" : 123024
        },
        {
            "buffer" : 0,
            "byteLength" : 202720,
            "byteOffset" : 234844
        },
        {
            "buffer" : 0,
            "byteLength" : 1332229,
            "byteOffset" : 437564
        },
        {
            "buffer" : 0,
            "byteLength" : 1536,
            "byteOffset" : 1769796
        },
        {
            "buffer" : 0,
            "byteLength" : 1536,
            "byteOffset" : 1771332
        },
        {
            "buffer" : 0,
            "byteLength" : 1024,
            "byteOffset" : 1772868
        },
        {
            "buffer" : 0,
            "byteLength" : 672,
            "byteOffset" : 1773892
        },
        {
            "buffer" : 0,
            "byteLength" : 393806,
            "byteOffset" : 1774564
        }
    ],
    "samplers" : [
        {
            "magFilter" : 9729,
            "minFilter" : 9987
        }
    ],
    "buffers" : [
        {
            "byteLength" : 2168372,
            "uri" : "data:application/octet-stream;base64,"
        }
    ]
}
