{
    "asset" : {
        "generator" : "Khronos glTF Blender I/O v1.7.33",
        "version" : "2.0"
    },
    "extensionsUsed" : [
        "KHR_texture_transform"
    ],
    "extensionsRequired" : [
        "KHR_texture_transform"
    ],
    "scene" : 0,
    "scenes" : [
        {
            "name" : "Scene",
            "nodes" : [
                0
            ]
        }
    ],
    "nodes" : [
        {
            "mesh" : 0,
            "name" : "Cube",
            "scale" : [
                0.5,
                0.5,
                2.5
            ]
        }
    ],
    "materials" : [
        {
            "doubleSided" : true,
            "name" : "Material",
            "normalTexture" : {
                "extensions" : {
                    "KHR_texture_transform" : {
                        "offset" : [
                            -7.999999999999992,
                            1.00000034969112
                        ],
                        "rotation" : 1.5707963705062866,
                        "scale" : [
                            36.099998474121094,
                            8
                        ]
                    }
                },
                "index" : 0
            },
            "pbrMetallicRoughness" : {
                "baseColorTexture" : {
                    "extensions" : {
                        "KHR_texture_transform" : {
                            "offset" : [
                                -7.999999999999992,
                                1.00000034969112
                            ],
                            "rotation" : 1.5707963705062866,
                            "scale" : [
                                36.099998474121094,
                                8
                            ]
                        }
                    },
                    "index" : 1
                },
                "metallicRoughnessTexture" : {
                    "extensions" : {
                        "KHR_texture_transform" : {
                            "offset" : [
                                -7.999999999999992,
                                1.00000034969112
                            ],
                            "rotation" : 1.5707963705062866,
                            "scale" : [
                                36.099998474121094,
                                8
                            ]
                        }
                    },
                    "index" : 2
                }
            }
        }
    ],
    "meshes" : [
        {
            "name" : "Cube",
            "primitives" : [
                {
                    "attributes" : {
                        "POSITION" : 0,
                        "NORMAL" : 1,
                        "TEXCOORD_0" : 2
                    },
                    "indices" : 3,
                    "material" : 0
                }
            ]
        }
    ],
    "textures" : [
        {
            "sampler" : 0,
            "source" : 0
        },
        {
            "sampler" : 0,
            "source" : 1
        },
        {
            "sampler" : 0,
            "source" : 2
        }
    ],
    "images" : [
        {
            "bufferView" : 4,
            "mimeType" : "image/jpeg",
            "name" : "Sci-fi_Wall_006_normal"
        },
        {
            "bufferView" : 5,
            "mimeType" : "image/jpeg",
            "name" : "Sci-fi_Wall_006_basecolor"
        },
        {
            "bufferView" : 6,
            "mimeType" : "image/png",
            "name" : "Sci-fi_Wall_006_metallic-Sci-fi_Wall_006_roughness"
        }
    ],
    "accessors" : [
        {
            "bufferView" : 0,
            "componentType" : 5126,
            "count" : 80,
            "max" : [
                1,
                1,
                1
            ],
            "min" : [
                -1,
                -1,
                -0.6836144924163818
            ],
            "type" : "VEC3"
        },
        {
            "bufferView" : 1,
            "componentType" : 5126,
            "count" : 80,
            "type" : "VEC3"
        },
        {
            "bufferView" : 2,
            "componentType" : 5126,
            "count" : 80,
            "type" : "VEC2"
        },
        {
            "bufferView" : 3,
            "componentType" : 5123,
            "count" : 132,
            "type" : "SCALAR"
        }
    ],
    "bufferViews" : [
        {
            "buffer" : 0,
            "byteLength" : 960,
            "byteOffset" : 0
        },
        {
            "buffer" : 0,
            "byteLength" : 960,
            "byteOffset" : 960
        },
        {
            "buffer" : 0,
            "byteLength" : 640,
            "byteOffset" : 1920
        },
        {
            "buffer" : 0,
            "byteLength" : 264,
            "byteOffset" : 2560
        },
        {
            "buffer" : 0,
            "byteLength" : 120495,
            "byteOffset" : 2824
        },
        {
            "buffer" : 0,
            "byteLength" : 149796,
            "byteOffset" : 123320
        },
        {
            "buffer" : 0,
            "byteLength" : 858155,
            "byteOffset" : 273116
        }
    ],
    "samplers" : [
        {
            "magFilter" : 9729,
            "minFilter" : 9987
        }
    ],
    "buffers" : [
        {
            "byteLength" : 1131272,
            "uri" : "data:application/octet-stream;base64,"
        }
    ]
}
